<svg width="27" height="22" viewBox="0 0 27 22" fill="none" xmlns="http://www.w3.org/2000/svg">
<path d="M24.454 9.16531C24.7236 11.2757 23.8305 13.4112 22.0113 15.1642C20.192 16.9172 17.4902 18.233 14.3284 18.6369C11.1666 19.0409 8.22078 18.4466 6.0192 17.2073C3.81764 15.9681 2.41633 14.1257 2.14671 12.0153C1.87708 9.90491 2.77018 7.76937 4.58945 6.0164C6.40874 4.2634 9.11048 2.94761 12.2723 2.54366C15.4342 2.1397 18.3799 2.73397 20.5815 3.97325C22.7831 5.21252 24.1844 7.05493 24.454 9.16531Z" stroke="#608BFB" stroke-width="2"/>
<path d="M20.7735 9.63553C20.9427 10.96 20.3773 12.3356 19.1583 13.4949C17.9398 14.6538 16.1161 15.5379 13.9675 15.8124C11.8189 16.0869 9.83154 15.6897 8.36081 14.8744C6.88948 14.0588 5.99639 12.8695 5.82718 11.5451C5.65796 10.2206 6.22336 8.845 7.44238 7.68569C8.6609 6.52684 10.4846 5.64272 12.6332 5.36821C14.7818 5.09371 16.7691 5.49093 18.2399 6.3062C19.7112 7.1218 20.6043 8.31105 20.7735 9.63553Z" stroke="#608BFB" stroke-width="2"/>
<path d="M17.093 10.1057C17.1606 10.6345 16.9331 11.2485 16.313 11.8186C15.695 12.3867 14.7468 12.8422 13.6067 12.9878C12.4665 13.1335 11.4342 12.9311 10.6933 12.5366C9.94977 12.1407 9.57522 11.6037 9.50766 11.0749C9.44009 10.546 9.6676 9.93209 10.2877 9.36199C10.9056 8.79387 11.8539 8.33843 12.994 8.19277C14.1342 8.04711 15.1665 8.24951 15.9074 8.64401C16.6509 9.03991 17.0255 9.57694 17.093 10.1057Z" stroke="#608BFB" stroke-width="2"/>
</svg>
