<svg width="130" height="50" viewBox="0 0 130 50" fill="none" xmlns="http://www.w3.org/2000/svg">
<g filter="url(#filter0_d)">
<rect x="10" y="10" width="110" height="30" rx="15" fill="#9DC130"/>
<path d="M64.6774 30C66.5254 30 67.8334 29.208 67.8334 27.576C67.8334 26.52 67.0894 25.656 65.9974 25.524V25.5C66.9574 25.2 67.4734 24.516 67.4734 23.64C67.4734 22.008 66.0214 21.504 64.9174 21.504H61.5574V30H64.6774ZM63.0694 28.704V26.256H64.5934C65.7454 26.256 66.3214 26.592 66.3214 27.456C66.3214 28.296 65.7094 28.704 64.5094 28.704H63.0694ZM63.0694 24.96V22.8H64.3774C65.4094 22.8 65.9614 23.148 65.9614 23.892C65.9614 24.54 65.4094 24.96 64.4974 24.96H63.0694ZM69.3026 21.504V26.94C69.3026 28.596 70.4666 30.216 72.7226 30.216C74.9666 30.216 76.1426 28.608 76.1426 26.94V21.504H74.6306V26.868C74.6306 27.648 74.1866 28.776 72.7226 28.776C71.2586 28.776 70.8146 27.648 70.8146 26.868V21.504H69.3026ZM82.0428 21.288C79.3668 21.288 77.5428 23.112 77.5428 25.788C77.5428 28.416 79.4028 30.216 82.0428 30.216C83.2308 30.216 84.4188 29.976 85.5468 29.376V25.032H82.2948V26.4H84.0348V28.404C83.4348 28.74 82.6908 28.848 82.0548 28.848C80.2308 28.848 79.1268 27.444 79.1268 25.692C79.1268 24 80.3028 22.656 82.0428 22.656C82.8348 22.656 83.6868 22.932 84.2628 23.484L85.3788 22.356C84.4788 21.54 83.2188 21.288 82.0428 21.288Z" fill="white"/>
<path fill-rule="evenodd" clip-rule="evenodd" d="M33.3547 17.3209C33.5923 16.9817 34.0599 16.8992 34.3992 17.1368C34.7384 17.3743 34.8209 17.8419 34.5833 18.1812L33.3678 19.9171C34.1573 20.1693 34.6952 20.4414 34.6952 20.4414C34.6952 20.4414 33.3805 22.7029 31.1506 22.7029C28.9206 22.7029 27.3361 20.5951 27.3361 20.5951C27.3361 20.5951 27.8979 20.2365 28.7308 19.929L27.4073 18.3518C27.1411 18.0345 27.1825 17.5615 27.4998 17.2953C27.817 17.029 28.29 17.0704 28.5563 17.3877L30.2491 19.4052C30.2828 19.4453 30.3115 19.4878 30.3353 19.5321C30.5344 19.5089 30.7374 19.4959 30.9423 19.4959C31.2296 19.4959 31.5167 19.5179 31.7968 19.5552C31.8109 19.529 31.8266 19.5033 31.8441 19.4783L33.3547 17.3209ZM27.7956 22.8099C27.2005 22.3849 26.3001 21.2757 26.3001 21.2757C26.3001 21.2757 24 23.0983 24 26.9631C24 30.8278 27.9764 33.1538 27.9764 33.1538C27.9764 33.1538 29.8763 31.2352 30.3427 28.803C30.8091 26.3708 29.6528 23.6701 29.6528 23.6701C29.6528 23.6701 28.3907 23.2349 27.7956 22.8099ZM34.2044 22.8099C34.7995 22.3849 35.6999 21.2757 35.6999 21.2757C35.6999 21.2757 38 23.0983 38 26.9631C38 30.8278 34.0236 33.1538 34.0236 33.1538C34.0236 33.1538 32.1237 31.2352 31.6573 28.803C31.1909 26.3708 32.3472 23.6701 32.3472 23.6701C32.3472 23.6701 33.6093 23.2349 34.2044 22.8099Z" fill="white"/>
</g>
<defs>
<filter id="filter0_d" x="-5" y="-5" width="140" height="60" filterUnits="userSpaceOnUse" color-interpolation-filters="sRGB">
<feFlood flood-opacity="0" result="BackgroundImageFix"/>
<feColorMatrix in="SourceAlpha" type="matrix" values="0 0 0 0 0 0 0 0 0 0 0 0 0 0 0 0 0 0 127 0"/>
<feOffset/>
<feGaussianBlur stdDeviation="5"/>
<feColorMatrix type="matrix" values="0 0 0 0 0.615686 0 0 0 0 0.756863 0 0 0 0 0.188235 0 0 0 0.7 0"/>
<feBlend mode="normal" in2="BackgroundImageFix" result="effect1_dropShadow"/>
<feBlend mode="normal" in="SourceGraphic" in2="effect1_dropShadow" result="shape"/>
</filter>
</defs>
</svg>
