<svg width="130" height="50" viewBox="0 0 130 50" fill="none" xmlns="http://www.w3.org/2000/svg">
<g filter="url(#filter0_d)">
<rect x="10" y="10" width="110" height="30" rx="15" fill="#5F606D"/>
<path d="M57.6785 21.504V30H60.8825C62.7305 30 65.3465 28.764 65.3465 25.752C65.3465 22.896 63.2585 21.504 61.0625 21.504H57.6785ZM59.1905 28.632V22.872H60.5825C62.4305 22.872 63.7625 23.688 63.7625 25.752C63.7625 27.816 62.1905 28.632 60.3785 28.632H59.1905ZM67.5279 30L68.2959 28.056H71.9799L72.7719 30H74.4999L70.8399 21.504H69.5319L65.8359 30H67.5279ZM70.1439 23.304L71.4519 26.76H68.8119L70.1439 23.304ZM76.9561 30V26.4H78.0601L80.0281 30H81.8521L79.5961 26.244C80.7961 26.076 81.5641 25.212 81.5641 23.94C81.5641 22.08 80.0761 21.504 78.4441 21.504H75.4441V30H76.9561ZM76.9561 22.8H78.3121C79.1041 22.8 79.9801 22.956 79.9801 23.928C79.9801 24.984 79.0681 25.104 78.2041 25.104H76.9561V22.8ZM83.0027 30H84.5147V25.824H84.5987L88.2827 30H90.4067L86.1707 25.428L90.1427 21.504H88.1027L84.5867 25.104H84.5147V21.504H83.0027V30Z" fill="white"/>
<path fill-rule="evenodd" clip-rule="evenodd" d="M38 25C38 28.866 34.866 32 31 32C29.8401 32 28.7461 31.7179 27.7828 31.2185C28.6915 31.1825 29.5427 30.8826 30.2815 30.3826C30.5474 30.4233 30.8199 30.4444 31.0972 30.4444C34.0504 30.4444 36.4444 28.0504 36.4444 25.0972C36.4444 22.144 34.0504 19.75 31.0972 19.75C30.8991 19.75 30.7034 19.7608 30.5109 19.7818C29.7211 19.1835 28.7871 18.8213 27.7828 18.7815C28.7461 18.2821 29.8401 18 31 18C34.866 18 38 21.134 38 25Z" fill="white"/>
</g>
<defs>
<filter id="filter0_d" x="-5" y="-5" width="140" height="60" filterUnits="userSpaceOnUse" color-interpolation-filters="sRGB">
<feFlood flood-opacity="0" result="BackgroundImageFix"/>
<feColorMatrix in="SourceAlpha" type="matrix" values="0 0 0 0 0 0 0 0 0 0 0 0 0 0 0 0 0 0 127 0"/>
<feOffset/>
<feGaussianBlur stdDeviation="5"/>
<feColorMatrix type="matrix" values="0 0 0 0 0.372549 0 0 0 0 0.376471 0 0 0 0 0.427451 0 0 0 0.7 0"/>
<feBlend mode="normal" in2="BackgroundImageFix" result="effect1_dropShadow"/>
<feBlend mode="normal" in="SourceGraphic" in2="effect1_dropShadow" result="shape"/>
</filter>
</defs>
</svg>
