<svg width="130" height="50" viewBox="0 0 130 50" fill="none" xmlns="http://www.w3.org/2000/svg">
<g filter="url(#filter0_d)">
<rect x="10" y="10" width="110" height="30" rx="15" fill="#0773C7"/>
<path d="M47.3425 21.504V30H50.5465C52.3945 30 55.0105 28.764 55.0105 25.752C55.0105 22.896 52.9225 21.504 50.7265 21.504H47.3425ZM48.8545 28.632V22.872H50.2465C52.0945 22.872 53.4265 23.688 53.4265 25.752C53.4265 27.816 51.8545 28.632 50.0425 28.632H48.8545ZM57.96 30V26.4H59.064L61.032 30H62.856L60.6 26.244C61.8 26.076 62.568 25.212 62.568 23.94C62.568 22.08 61.08 21.504 59.448 21.504H56.448V30H57.96ZM57.96 22.8H59.316C60.108 22.8 60.984 22.956 60.984 23.928C60.984 24.984 60.072 25.104 59.208 25.104H57.96V22.8ZM64.7506 30L65.5186 28.056H69.2026L69.9946 30H71.7226L68.0626 21.504H66.7546L63.0586 30H64.7506ZM67.3666 23.304L68.6746 26.76H66.0346L67.3666 23.304ZM76.7108 21.288C74.0348 21.288 72.2108 23.112 72.2108 25.788C72.2108 28.416 74.0708 30.216 76.7108 30.216C77.8988 30.216 79.0868 29.976 80.2148 29.376V25.032H76.9628V26.4H78.7028V28.404C78.1028 28.74 77.3588 28.848 76.7228 28.848C74.8988 28.848 73.7948 27.444 73.7948 25.692C73.7948 24 74.9708 22.656 76.7108 22.656C77.5028 22.656 78.3548 22.932 78.9308 23.484L80.0468 22.356C79.1468 21.54 77.8867 21.288 76.7108 21.288ZM90.5626 25.74C90.5626 23.088 88.7866 21.288 86.0986 21.288C83.1346 21.288 81.5506 23.34 81.5506 25.788C81.5506 28.416 83.3986 30.216 86.0146 30.216C88.6306 30.216 90.5626 28.404 90.5626 25.74ZM83.1346 25.692C83.1346 24.012 84.3106 22.656 86.0386 22.656C87.7786 22.656 88.9786 23.952 88.9786 25.692C88.9786 27.42 87.8866 28.848 86.0506 28.848C84.2266 28.848 83.1346 27.432 83.1346 25.692ZM93.5147 30V23.484H93.5387L97.7387 30H99.6587V21.504H98.1467V27.816H98.1227L94.0067 21.504H92.0027V30H93.5147Z" fill="white"/>
<path fill-rule="evenodd" clip-rule="evenodd" d="M31.7804 23.965C31.8888 23.8989 31.9808 23.7603 32.0551 23.6063C33.0315 24.0054 33.7176 24.9484 33.7176 26.0481C33.7176 27.5091 32.5067 28.6934 31.0129 28.6934C30.3998 28.6934 29.8342 28.4938 29.3806 28.1575C29.2317 28.087 29.1093 28.0193 29.0091 27.9639C28.8537 27.878 28.7518 27.8217 28.688 27.8305C28.5014 27.8562 28.5556 28.0278 28.6048 28.1837C28.6383 28.2896 28.6694 28.3883 28.6212 28.429C28.5707 28.4716 28.4074 28.3158 28.2165 28.1338C27.9566 27.886 27.6457 27.5896 27.4991 27.6787C27.3832 27.7491 27.4957 27.94 27.6335 28.1738L27.6437 28.1911C27.7019 28.29 27.7693 28.3905 27.8309 28.4824C27.956 28.669 28.0567 28.8193 28.0063 28.8448C27.9454 28.8755 27.5208 28.589 27.163 28.1911C27.0249 28.0376 26.8911 27.8711 26.7669 27.7165C26.4948 27.3779 26.2681 27.0959 26.1408 27.1293C25.9878 27.1695 26.1036 27.4852 26.2737 27.7891C26.3533 27.9312 26.4469 28.0759 26.5279 28.2011C26.6539 28.396 26.7496 28.5438 26.7149 28.562C26.6681 28.5865 26.2562 28.1848 25.9764 27.6787C25.8102 27.378 25.6707 27.0458 25.5577 26.7768C25.4352 26.4851 25.344 26.2678 25.2839 26.2459C25.0751 26.1699 25.0751 26.5956 25.1589 27.21C25.1698 27.2901 25.186 27.3741 25.2061 27.4597C26.0181 30.087 28.5125 32 31.4637 32C35.0736 32 38 29.1379 38 25.6072C38 22.2469 35.3491 19.4921 31.981 19.2342C31.9852 19.0759 32.0678 18.762 32.0678 18.762C32.0678 18.762 32.6625 17.3233 32.6939 17.0159C32.696 16.9955 32.6984 16.9734 32.7011 16.9497C32.7381 16.6176 32.807 16 32.2757 16C31.992 16 31.86 16.2111 31.7091 16.4525C31.6512 16.5452 31.5904 16.6423 31.5172 16.7337C30.9901 17.392 30.1037 18.214 29.6011 18.652C28.5388 19.5776 27.4966 20.3384 26.8887 20.7821L26.8887 20.7821L26.8887 20.7821C26.6122 20.9839 26.4256 21.1201 26.3679 21.1764C25.9327 21.6006 24.3723 24.4152 24.3723 24.4152C24.3723 24.4152 23.8677 25.3182 24.047 25.5013C24.2264 25.6845 24.6589 25.6425 24.6589 25.6425C24.6589 25.6425 30.4696 24.3095 30.9898 24.2043C31.1299 24.176 31.2287 24.1597 31.3046 24.1472C31.5107 24.1131 31.5477 24.107 31.7804 23.965ZM27.6721 22.252C27.3602 22.5485 26.8429 23.2561 26.8429 23.2561C26.8429 23.2561 27.8043 23.3154 28.3338 22.8121C28.8632 22.3088 28.7419 21.451 28.7419 21.451C28.7419 21.451 27.984 21.9555 27.6721 22.252Z" fill="white"/>
</g>
<defs>
<filter id="filter0_d" x="-5" y="-5" width="140" height="60" filterUnits="userSpaceOnUse" color-interpolation-filters="sRGB">
<feFlood flood-opacity="0" result="BackgroundImageFix"/>
<feColorMatrix in="SourceAlpha" type="matrix" values="0 0 0 0 0 0 0 0 0 0 0 0 0 0 0 0 0 0 127 0"/>
<feOffset/>
<feGaussianBlur stdDeviation="5"/>
<feColorMatrix type="matrix" values="0 0 0 0 0.027451 0 0 0 0 0.45098 0 0 0 0 0.780392 0 0 0 0.7 0"/>
<feBlend mode="normal" in2="BackgroundImageFix" result="effect1_dropShadow"/>
<feBlend mode="normal" in="SourceGraphic" in2="effect1_dropShadow" result="shape"/>
</filter>
</defs>
</svg>
