<svg width="130" height="50" viewBox="0 0 130 50" fill="none" xmlns="http://www.w3.org/2000/svg">
<g filter="url(#filter0_d)">
<rect x="10" y="10" width="110" height="30" rx="15" fill="#EDD53F"/>
<path d="M46.8914 30H52.7354V28.632H48.4034V26.328H52.3034V24.96H48.4034V22.872H52.5194V21.504H46.8914V30ZM55.7393 21.504H54.2273V30H59.3513V28.632H55.7393V21.504ZM60.45 30H66.294V28.632H61.962V26.328H65.862V24.96H61.962V22.872H66.078V21.504H60.45V30ZM71.8179 21.288C69.1059 21.288 67.3299 23.148 67.3299 25.788C67.3299 28.428 69.2019 30.216 71.8179 30.216C73.0659 30.216 74.2539 29.736 74.9859 28.704L73.7379 27.816C73.2579 28.428 72.6339 28.848 71.8299 28.848C70.0419 28.848 68.9139 27.444 68.9139 25.692C68.9139 24 70.0899 22.656 71.8299 22.656C72.5739 22.656 73.1259 22.968 73.6179 23.496L74.7939 22.632C73.9899 21.72 73.0299 21.288 71.8179 21.288ZM75.1367 22.872H77.7407V30H79.2527V22.872H81.8567V21.504H75.1367V22.872ZM84.4034 30V26.4H85.5074L87.4754 30H89.2994L87.0434 26.244C88.2434 26.076 89.0114 25.212 89.0114 23.94C89.0114 22.08 87.5234 21.504 85.8914 21.504H82.8914V30H84.4034ZM84.4034 22.8H85.7594C86.5514 22.8 87.4274 22.956 87.4274 23.928C87.4274 24.984 86.5154 25.104 85.6514 25.104H84.4034V22.8ZM91.926 21.504H90.414V30H91.926V21.504ZM97.8218 21.288C95.1098 21.288 93.3338 23.148 93.3338 25.788C93.3338 28.428 95.2058 30.216 97.8218 30.216C99.0698 30.216 100.258 29.736 100.99 28.704L99.7418 27.816C99.2618 28.428 98.6378 28.848 97.8338 28.848C96.0458 28.848 94.9178 27.444 94.9178 25.692C94.9178 24 96.0938 22.656 97.8338 22.656C98.5778 22.656 99.1298 22.968 99.6218 23.496L100.798 22.632C99.9938 21.72 99.0338 21.288 97.8218 21.288Z" fill="white"/>
<path fill-rule="evenodd" clip-rule="evenodd" d="M25.9632 17.5837C25.8643 17.298 26.0765 17 26.3788 17H31.086C31.2788 17 31.4492 17.1256 31.5062 17.3098L33.8236 24.797C33.9112 25.08 33.6997 25.3669 33.4034 25.3669H30.5221C30.3762 25.3669 30.2707 25.5065 30.3106 25.6469L31.7536 30.7264C31.8867 31.1953 31.2718 31.5005 30.9789 31.111L24.5295 22.5343C24.3115 22.2444 24.5184 21.8301 24.881 21.8301H27.1238C27.275 21.8301 27.3811 21.6811 27.3316 21.5383L25.9632 17.5837Z" fill="white"/>
</g>
<defs>
<filter id="filter0_d" x="-5" y="-5" width="140" height="60" filterUnits="userSpaceOnUse" color-interpolation-filters="sRGB">
<feFlood flood-opacity="0" result="BackgroundImageFix"/>
<feColorMatrix in="SourceAlpha" type="matrix" values="0 0 0 0 0 0 0 0 0 0 0 0 0 0 0 0 0 0 127 0"/>
<feOffset/>
<feGaussianBlur stdDeviation="5"/>
<feColorMatrix type="matrix" values="0 0 0 0 0.929412 0 0 0 0 0.835294 0 0 0 0 0.247059 0 0 0 0.7 0"/>
<feBlend mode="normal" in2="BackgroundImageFix" result="effect1_dropShadow"/>
<feBlend mode="normal" in="SourceGraphic" in2="effect1_dropShadow" result="shape"/>
</filter>
</defs>
</svg>
