<svg width="130" height="50" viewBox="0 0 130 50" fill="none" xmlns="http://www.w3.org/2000/svg">
<g filter="url(#filter0_d)">
<rect x="10" y="10" width="110" height="30" rx="15" fill="#EF97E6"/>
<path d="M57.9949 30H59.5069V26.472H63.2509V25.104H59.5069V22.872H63.4789V21.504H57.9949V30ZM64.9733 30L65.7413 28.056H69.4253L70.2173 30H71.9453L68.2853 21.504H66.9773L63.2812 30H64.9733ZM67.5893 23.304L68.8973 26.76H66.2573L67.5893 23.304ZM74.3654 21.504H72.8534V30H74.3654V21.504ZM77.7413 30V26.4H78.8453L80.8133 30H82.6373L80.3813 26.244C81.5813 26.076 82.3493 25.212 82.3493 23.94C82.3493 22.08 80.8613 21.504 79.2293 21.504H76.2293V30H77.7413ZM77.7413 22.8H79.0973C79.8893 22.8 80.7653 22.956 80.7653 23.928C80.7653 24.984 79.8533 25.104 78.9893 25.104H77.7413V22.8ZM84.1225 21.504H82.2265L85.4185 26.364V30H86.9305V26.364L90.1225 21.504H88.3225L86.2105 24.888L84.1225 21.504Z" fill="white"/>
<path fill-rule="evenodd" clip-rule="evenodd" d="M27.2701 28.9239L29.3448 28.3223L31.2872 31.8738C31.3792 32.042 31.6208 32.042 31.7128 31.8738L33.6552 28.3223L35.7299 28.9239C35.9141 28.9773 36.0845 28.806 36.0301 28.6221L35.4306 26.596L38.8738 24.7128C39.042 24.6208 39.042 24.3792 38.8738 24.2872L35.3991 22.3868L36.0301 20.2543C36.0845 20.0704 35.9141 19.8991 35.7299 19.9525L33.5968 20.571L31.7128 17.1262C31.6208 16.958 31.3792 16.958 31.2872 17.1262L29.4032 20.571L27.2701 19.9525C27.0859 19.8991 26.9155 20.0704 26.9699 20.2543L27.6009 22.3868L24.1262 24.2872C23.958 24.3792 23.958 24.6208 24.1262 24.7128L27.5694 26.596L26.9699 28.6221C26.9155 28.806 27.0859 28.9773 27.2701 28.9239ZM29.1649 24.7332L30.55 25.4907L31.3075 26.8758C31.3995 27.044 31.6412 27.044 31.7332 26.8758L32.4907 25.4907L33.8758 24.7332C34.044 24.6412 34.044 24.3995 33.8758 24.3075L32.4907 23.55L31.7332 22.1649C31.6412 21.9966 31.3995 21.9966 31.3075 22.1649L30.55 23.55L29.1649 24.3075C28.9966 24.3995 28.9966 24.6412 29.1649 24.7332Z" fill="white"/>
</g>
<defs>
<filter id="filter0_d" x="-5" y="-5" width="140" height="60" filterUnits="userSpaceOnUse" color-interpolation-filters="sRGB">
<feFlood flood-opacity="0" result="BackgroundImageFix"/>
<feColorMatrix in="SourceAlpha" type="matrix" values="0 0 0 0 0 0 0 0 0 0 0 0 0 0 0 0 0 0 127 0"/>
<feOffset/>
<feGaussianBlur stdDeviation="5"/>
<feColorMatrix type="matrix" values="0 0 0 0 0.937255 0 0 0 0 0.592157 0 0 0 0 0.901961 0 0 0 0.7 0"/>
<feBlend mode="normal" in2="BackgroundImageFix" result="effect1_dropShadow"/>
<feBlend mode="normal" in="SourceGraphic" in2="effect1_dropShadow" result="shape"/>
</filter>
</defs>
</svg>
