<svg width="130" height="50" viewBox="0 0 130 50" fill="none" xmlns="http://www.w3.org/2000/svg">
<g filter="url(#filter0_d)">
<rect x="10" y="10" width="110" height="30" rx="15" fill="#D94256"/>
<path d="M56.7703 30H58.2823V26.472H62.0263V25.104H58.2823V22.872H62.2543V21.504H56.7703V30ZM65.1369 21.504H63.6249V30H65.1369V21.504ZM71.0447 21.288C68.3687 21.288 66.5447 23.112 66.5447 25.788C66.5447 28.416 68.4047 30.216 71.0447 30.216C72.2327 30.216 73.4207 29.976 74.5487 29.376V25.032H71.2967V26.4H73.0367V28.404C72.4367 28.74 71.6927 28.848 71.0567 28.848C69.2327 28.848 68.1287 27.444 68.1287 25.692C68.1287 24 69.3047 22.656 71.0447 22.656C71.8367 22.656 72.6887 22.932 73.2647 23.484L74.3807 22.356C73.4807 21.54 72.2207 21.288 71.0447 21.288ZM76.3406 30H77.8526V26.256H81.8246V30H83.3366V21.504H81.8246V24.888H77.8526V21.504H76.3406V30ZM84.3711 22.872H86.9751V30H88.4871V22.872H91.0911V21.504H84.3711V22.872Z" fill="white"/>
<path fill-rule="evenodd" clip-rule="evenodd" d="M26.0869 18.2471C26.2684 17.5303 26.9177 17 27.6909 17C28.2733 17 28.7854 17.3009 29.0802 17.7557C29.1257 17.7519 29.1717 17.75 29.2182 17.75C29.3255 17.75 29.4304 17.7602 29.5321 17.7797C29.8342 17.4539 30.266 17.25 30.7455 17.25C31.4267 17.25 32.0118 17.6618 32.2655 18.25L32.2727 18.25C32.3904 18.25 32.5052 18.2623 32.6159 18.2856C32.8808 18.1054 33.2008 18 33.5455 18C34.2607 18 34.8699 18.4538 35.1009 19.0892C35.2263 19.1322 35.3448 19.1898 35.4545 19.2601C35.7117 19.0955 36.0174 19 36.3455 19C37.2592 19 38 19.7408 38 20.6545V25.625V25.7056C38 25.736 37.9992 25.7663 37.9975 25.7964C37.8978 29.238 34.8031 32 31 32C27.134 32 24 29.1458 24 25.625C24 23.9255 24.7302 22.3813 25.9205 21.2385C25.9175 22.8965 25.9455 24.6111 26.0745 24.5817C26.42 24.5029 26.1501 19.3687 26.0869 18.2471Z" fill="white"/>
</g>
<defs>
<filter id="filter0_d" x="-5" y="-5" width="140" height="60" filterUnits="userSpaceOnUse" color-interpolation-filters="sRGB">
<feFlood flood-opacity="0" result="BackgroundImageFix"/>
<feColorMatrix in="SourceAlpha" type="matrix" values="0 0 0 0 0 0 0 0 0 0 0 0 0 0 0 0 0 0 127 0"/>
<feOffset/>
<feGaussianBlur stdDeviation="5"/>
<feColorMatrix type="matrix" values="0 0 0 0 0.85098 0 0 0 0 0.258824 0 0 0 0 0.337255 0 0 0 0.7 0"/>
<feBlend mode="normal" in2="BackgroundImageFix" result="effect1_dropShadow"/>
<feBlend mode="normal" in="SourceGraphic" in2="effect1_dropShadow" result="shape"/>
</filter>
</defs>
</svg>
