<svg width="130" height="50" viewBox="0 0 130 50" fill="none" xmlns="http://www.w3.org/2000/svg">
<g filter="url(#filter0_d)">
<rect x="10" y="10" width="110" height="30" rx="15" fill="#F8A54F"/>
<path d="M61.8855 30H63.3975V26.472H67.1415V25.104H63.3975V22.872H67.3695V21.504H61.8855V30ZM70.2521 21.504H68.7401V30H70.2521V21.504ZM73.628 30V26.4H74.732L76.7 30H78.524L76.268 26.244C77.468 26.076 78.236 25.212 78.236 23.94C78.236 22.08 76.748 21.504 75.116 21.504H72.116V30H73.628ZM73.628 22.8H74.984C75.776 22.8 76.652 22.956 76.652 23.928C76.652 24.984 75.74 25.104 74.876 25.104H73.628V22.8ZM79.6746 30H85.5186V28.632H81.1866V26.328H85.0866V24.96H81.1866V22.872H85.3026V21.504H79.6746V30Z" fill="white"/>
<path fill-rule="evenodd" clip-rule="evenodd" d="M32.4855 28.44C32.6685 27.7708 32.3133 26.3949 32.3133 26.3949C32.3133 26.3949 32.0556 27.5157 31.6529 27.93C31.3095 28.2834 30.8886 28.5285 30.2851 28.5929C30.7785 28.3532 31.1179 27.8534 31.1179 27.2757C31.1179 26.4649 30.4492 25.8075 29.6243 25.8075C28.7994 25.8075 28.1307 26.4649 28.1307 27.2757C28.1307 27.4972 28.1806 27.7072 28.2699 27.8955C27.754 27.4845 27.6728 26.8255 27.6728 26.8255C27.6728 26.8255 27.0967 29.2174 28.6842 30.3426C30.2716 31.4678 33.3813 30.5006 33.3813 30.5006C33.3813 30.5006 28.9311 33.6319 25.6335 30.2239C22.7929 27.2882 24.8921 23.4232 24.8921 23.4232C24.8921 23.4232 24.8014 23.7818 24.8014 24.198C24.8014 24.6142 25.0271 24.9309 25.0271 24.9309C25.0271 24.9309 25.7002 23.512 26.2241 22.935C26.7199 22.3889 27.3414 21.946 27.8782 21.5635C28.2914 21.269 28.6545 21.0102 28.8713 20.7678C30.0656 19.4324 29.3333 17 29.3333 17C29.3333 17 30.6796 18.1868 31.0554 19.7197C31.1987 20.3039 31.1065 20.9687 31.0241 21.5632C30.8903 22.5283 30.7822 23.3081 31.7487 23.2575C33.3106 23.1758 31.9534 20.7678 31.9534 20.7678C31.9534 20.7678 35.4963 22.6299 35.2316 25.8867C34.9669 29.1435 31.359 29.8839 31.359 29.8839C31.359 29.8839 32.3025 29.1093 32.4855 28.44Z" fill="white"/>
</g>
<defs>
<filter id="filter0_d" x="-5" y="-5" width="140" height="60" filterUnits="userSpaceOnUse" color-interpolation-filters="sRGB">
<feFlood flood-opacity="0" result="BackgroundImageFix"/>
<feColorMatrix in="SourceAlpha" type="matrix" values="0 0 0 0 0 0 0 0 0 0 0 0 0 0 0 0 0 0 127 0"/>
<feOffset/>
<feGaussianBlur stdDeviation="5"/>
<feColorMatrix type="matrix" values="0 0 0 0 0.972549 0 0 0 0 0.647059 0 0 0 0 0.309804 0 0 0 0.7 0"/>
<feBlend mode="normal" in2="BackgroundImageFix" result="effect1_dropShadow"/>
<feBlend mode="normal" in="SourceGraphic" in2="effect1_dropShadow" result="shape"/>
</filter>
</defs>
</svg>
