<svg width="130" height="50" viewBox="0 0 130 50" fill="none" xmlns="http://www.w3.org/2000/svg">
<g filter="url(#filter0_d)">
<rect x="10" y="10" width="110" height="30" rx="15" fill="#9BB4E8"/>
<path d="M53.6648 30H55.1768V26.472H58.9208V25.104H55.1768V22.872H59.1488V21.504H53.6648V30ZM62.0674 21.504H60.5554V30H65.6794V28.632H62.0674V21.504ZM66.2221 21.504H64.3261L67.5181 26.364V30H69.0301V26.364L72.2221 21.504H70.4221L68.3101 24.888L66.2221 21.504ZM74.4767 21.504H72.9647V30H74.4767V21.504ZM77.8526 30V23.484H77.8766L82.0766 30H83.9966V21.504H82.4846V27.816H82.4606L78.3446 21.504H76.3406V30H77.8526ZM89.9354 21.288C87.2594 21.288 85.4354 23.112 85.4354 25.788C85.4354 28.416 87.2954 30.216 89.9354 30.216C91.1234 30.216 92.3114 29.976 93.4394 29.376V25.032H90.1874V26.4H91.9274V28.404C91.3274 28.74 90.5834 28.848 89.9474 28.848C88.1234 28.848 87.0194 27.444 87.0194 25.692C87.0194 24 88.1954 22.656 89.9354 22.656C90.7274 22.656 91.5794 22.932 92.1554 23.484L93.2714 22.356C92.3714 21.54 91.1114 21.288 89.9354 21.288Z" fill="white"/>
<ellipse cx="31.5" cy="23.5" rx="7.5" ry="6.5" fill="white"/>
</g>
<defs>
<filter id="filter0_d" x="-5" y="-5" width="140" height="60" filterUnits="userSpaceOnUse" color-interpolation-filters="sRGB">
<feFlood flood-opacity="0" result="BackgroundImageFix"/>
<feColorMatrix in="SourceAlpha" type="matrix" values="0 0 0 0 0 0 0 0 0 0 0 0 0 0 0 0 0 0 127 0"/>
<feOffset/>
<feGaussianBlur stdDeviation="5"/>
<feColorMatrix type="matrix" values="0 0 0 0 0.607843 0 0 0 0 0.705882 0 0 0 0 0.909804 0 0 0 0.7 0"/>
<feBlend mode="normal" in2="BackgroundImageFix" result="effect1_dropShadow"/>
<feBlend mode="normal" in="SourceGraphic" in2="effect1_dropShadow" result="shape"/>
</filter>
</defs>
</svg>
