<svg width="130" height="50" viewBox="0 0 130 50" fill="none" xmlns="http://www.w3.org/2000/svg">
<g filter="url(#filter0_d)">
<rect x="10" y="10" width="110" height="30" rx="15" fill="#6970C5"/>
<path d="M57.4861 21.288C54.8101 21.288 52.9861 23.112 52.9861 25.788C52.9861 28.416 54.8461 30.216 57.4861 30.216C58.6741 30.216 59.8621 29.976 60.9901 29.376V25.032H57.7381V26.4H59.4781V28.404C58.8781 28.74 58.1341 28.848 57.4981 28.848C55.6741 28.848 54.5701 27.444 54.5701 25.692C54.5701 24 55.7461 22.656 57.4861 22.656C58.2781 22.656 59.1301 22.932 59.7061 23.484L60.8221 22.356C59.9221 21.54 58.6621 21.288 57.4861 21.288ZM62.782 30H64.294V26.256H68.266V30H69.778V21.504H68.266V24.888H64.294V21.504H62.782V30ZM80.2325 25.74C80.2325 23.088 78.4565 21.288 75.7685 21.288C72.8045 21.288 71.2205 23.34 71.2205 25.788C71.2205 28.416 73.0685 30.216 75.6845 30.216C78.3005 30.216 80.2325 28.404 80.2325 25.74ZM72.8045 25.692C72.8045 24.012 73.9805 22.656 75.7085 22.656C77.4485 22.656 78.6485 23.952 78.6485 25.692C78.6485 27.42 77.5565 28.848 75.7205 28.848C73.8965 28.848 72.8045 27.432 72.8045 25.692ZM84.5046 21.288C82.6566 21.288 81.3726 22.32 81.3726 23.856C81.3726 25.392 82.3566 25.908 83.8806 26.376C84.9726 26.712 85.4046 27.048 85.4046 27.684C85.4046 28.368 84.7326 28.848 83.9166 28.848C83.2326 28.848 82.6086 28.524 82.2366 27.96L81.0966 29.064C81.7566 29.856 82.7406 30.216 83.9406 30.216C85.6086 30.216 86.9886 29.256 86.9886 27.504C86.9886 25.752 85.6326 25.32 84.2766 24.9C83.4366 24.636 82.9566 24.324 82.9566 23.748C82.9566 23.088 83.4966 22.656 84.3486 22.656C84.9366 22.656 85.5006 22.86 85.8366 23.328L86.9406 22.164C86.3406 21.6 85.4766 21.288 84.5046 21.288ZM87.6992 22.872H90.3032V30H91.8152V22.872H94.4192V21.504H87.6992V22.872Z" fill="white"/>
<path fill-rule="evenodd" clip-rule="evenodd" d="M31 31C34.866 31 38 27.866 38 24C38 20.134 34.866 17 31 17C27.134 17 24 20.134 24 24C24 27.866 27.134 31 31 31ZM28.9219 24.0721C29.5259 24.0721 30.0156 23.5924 30.0156 23.0006H29.3394C28.8188 23.0006 28.3945 22.588 28.3757 22.072C28.0484 22.2572 27.8281 22.6037 27.8281 23.0006C27.8281 23.5924 28.3178 24.0721 28.9219 24.0721ZM31.7656 23.0006C31.7656 23.5924 32.2553 24.0721 32.8594 24.0721C33.4634 24.0721 33.9531 23.5924 33.9531 23.0006C33.9531 22.6037 33.7329 22.2572 33.4056 22.072C33.3868 22.588 32.9625 23.0006 32.4419 23.0006H31.7656Z" fill="white"/>
</g>
<defs>
<filter id="filter0_d" x="-5" y="-5" width="140" height="60" filterUnits="userSpaceOnUse" color-interpolation-filters="sRGB">
<feFlood flood-opacity="0" result="BackgroundImageFix"/>
<feColorMatrix in="SourceAlpha" type="matrix" values="0 0 0 0 0 0 0 0 0 0 0 0 0 0 0 0 0 0 127 0"/>
<feOffset/>
<feGaussianBlur stdDeviation="5"/>
<feColorMatrix type="matrix" values="0 0 0 0 0.411765 0 0 0 0 0.439216 0 0 0 0 0.772549 0 0 0 0.7 0"/>
<feBlend mode="normal" in2="BackgroundImageFix" result="effect1_dropShadow"/>
<feBlend mode="normal" in="SourceGraphic" in2="effect1_dropShadow" result="shape"/>
</filter>
</defs>
</svg>
