<svg width="130" height="50" viewBox="0 0 130 50" fill="none" xmlns="http://www.w3.org/2000/svg">
<g filter="url(#filter0_d)">
<rect x="10" y="10" width="110" height="30" rx="15" fill="#5DBE62"/>
<path d="M58.8221 21.288C56.1461 21.288 54.3221 23.112 54.3221 25.788C54.3221 28.416 56.1821 30.216 58.8221 30.216C60.0101 30.216 61.1981 29.976 62.3261 29.376V25.032H59.0741V26.4H60.8141V28.404C60.2141 28.74 59.4701 28.848 58.8341 28.848C57.0101 28.848 55.9061 27.444 55.9061 25.692C55.9061 24 57.0821 22.656 58.8221 22.656C59.6141 22.656 60.4661 22.932 61.0421 23.484L62.1581 22.356C61.2581 21.54 59.9981 21.288 58.8221 21.288ZM65.6299 30V26.4H66.7339L68.7019 30H70.5259L68.2699 26.244C69.4699 26.076 70.2379 25.212 70.2379 23.94C70.2379 22.08 68.7499 21.504 67.1179 21.504H64.1179V30H65.6299ZM65.6299 22.8H66.9859C67.7779 22.8 68.6539 22.956 68.6539 23.928C68.6539 24.984 67.7419 25.104 66.8779 25.104H65.6299V22.8ZM72.4205 30L73.1885 28.056H76.8725L77.6645 30H79.3925L75.7325 21.504H74.4245L70.7285 30H72.4205ZM75.0365 23.304L76.3445 26.76H73.7045L75.0365 23.304ZM83.1687 21.288C81.3207 21.288 80.0367 22.32 80.0367 23.856C80.0367 25.392 81.0207 25.908 82.5447 26.376C83.6367 26.712 84.0687 27.048 84.0687 27.684C84.0687 28.368 83.3967 28.848 82.5807 28.848C81.8967 28.848 81.2727 28.524 80.9007 27.96L79.7607 29.064C80.4207 29.856 81.4047 30.216 82.6047 30.216C84.2727 30.216 85.6527 29.256 85.6527 27.504C85.6527 25.752 84.2967 25.32 82.9407 24.9C82.1007 24.636 81.6207 24.324 81.6207 23.748C81.6207 23.088 82.1607 22.656 83.0127 22.656C83.6007 22.656 84.1647 22.86 84.5007 23.328L85.6047 22.164C85.0047 21.6 84.1407 21.288 83.1687 21.288ZM90.0593 21.288C88.2113 21.288 86.9273 22.32 86.9273 23.856C86.9273 25.392 87.9113 25.908 89.4353 26.376C90.5273 26.712 90.9593 27.048 90.9593 27.684C90.9593 28.368 90.2873 28.848 89.4713 28.848C88.7873 28.848 88.1633 28.524 87.7913 27.96L86.6513 29.064C87.3113 29.856 88.2953 30.216 89.4953 30.216C91.1633 30.216 92.5433 29.256 92.5433 27.504C92.5433 25.752 91.1873 25.32 89.8313 24.9C88.9913 24.636 88.5113 24.324 88.5113 23.748C88.5113 23.088 89.0513 22.656 89.9033 22.656C90.4913 22.656 91.0553 22.86 91.3913 23.328L92.4953 22.164C91.8953 21.6 91.0313 21.288 90.0593 21.288Z" fill="white"/>
<path fill-rule="evenodd" clip-rule="evenodd" d="M29.1959 30.63C31.664 32.1964 35.3575 31.5614 37.9594 28.9594C40.8884 26.0305 41.325 21.7184 38.9347 19.3281C36.5443 16.9377 32.2322 17.3744 29.3033 20.3033C26.3744 23.2322 25.9377 27.5443 28.3281 29.9347C28.3733 29.9799 28.4193 30.0242 28.4659 30.0674L30.4449 27.6256L30.4449 24.9299L31.1037 26.9569L32.5249 25.3548L32.2475 23.5189L33.0354 24.6308L35.0759 22.3421L33.6414 24.9299L35.0759 25.3548L33.2617 25.7522L31.668 27.3749L34.1758 27.6256L31.1037 28.2888L29.1959 30.63Z" fill="white"/>
</g>
<defs>
<filter id="filter0_d" x="-5" y="-5" width="140" height="60" filterUnits="userSpaceOnUse" color-interpolation-filters="sRGB">
<feFlood flood-opacity="0" result="BackgroundImageFix"/>
<feColorMatrix in="SourceAlpha" type="matrix" values="0 0 0 0 0 0 0 0 0 0 0 0 0 0 0 0 0 0 127 0"/>
<feOffset/>
<feGaussianBlur stdDeviation="5"/>
<feColorMatrix type="matrix" values="0 0 0 0 0.364706 0 0 0 0 0.745098 0 0 0 0 0.384314 0 0 0 0.7 0"/>
<feBlend mode="normal" in2="BackgroundImageFix" result="effect1_dropShadow"/>
<feBlend mode="normal" in="SourceGraphic" in2="effect1_dropShadow" result="shape"/>
</filter>
</defs>
</svg>
