<svg width="130" height="50" viewBox="0 0 130 50" fill="none" xmlns="http://www.w3.org/2000/svg">
<g filter="url(#filter0_d)">
<rect x="10" y="10" width="110" height="30" rx="15" fill="#D78555"/>
<path d="M51.3865 21.288C48.7105 21.288 46.8865 23.112 46.8865 25.788C46.8865 28.416 48.7465 30.216 51.3865 30.216C52.5745 30.216 53.7625 29.976 54.8905 29.376V25.032H51.6385V26.4H53.3785V28.404C52.7785 28.74 52.0345 28.848 51.3985 28.848C49.5745 28.848 48.4705 27.444 48.4705 25.692C48.4705 24 49.6465 22.656 51.3865 22.656C52.1785 22.656 53.0305 22.932 53.6065 23.484L54.7225 22.356C53.8225 21.54 52.5625 21.288 51.3865 21.288ZM58.1944 30V26.4H59.2984L61.2664 30H63.0904L60.8344 26.244C62.0344 26.076 62.8024 25.212 62.8024 23.94C62.8024 22.08 61.3144 21.504 59.6824 21.504H56.6824V30H58.1944ZM58.1944 22.8H59.5504C60.3424 22.8 61.2184 22.956 61.2184 23.928C61.2184 24.984 60.3064 25.104 59.4424 25.104H58.1944V22.8ZM72.797 25.74C72.797 23.088 71.021 21.288 68.333 21.288C65.369 21.288 63.785 23.34 63.785 25.788C63.785 28.416 65.633 30.216 68.249 30.216C70.865 30.216 72.797 28.404 72.797 25.74ZM65.369 25.692C65.369 24.012 66.545 22.656 68.273 22.656C70.013 22.656 71.213 23.952 71.213 25.692C71.213 27.42 70.121 28.848 68.285 28.848C66.461 28.848 65.369 27.432 65.369 25.692ZM74.2011 21.504V26.94C74.2011 28.596 75.3651 30.216 77.6211 30.216C79.8651 30.216 81.0411 28.608 81.0411 26.94V21.504H79.5291V26.868C79.5291 27.648 79.0851 28.776 77.6211 28.776C76.1571 28.776 75.7131 27.648 75.7131 26.868V21.504H74.2011ZM84.4092 30V23.484H84.4332L88.6332 30H90.5532V21.504H89.0412V27.816H89.0172L84.9012 21.504H82.8972V30H84.4092ZM92.448 21.504V30H95.652C97.5 30 100.116 28.764 100.116 25.752C100.116 22.896 98.028 21.504 95.832 21.504H92.448ZM93.96 28.632V22.872H95.352C97.2 22.872 98.532 23.688 98.532 25.752C98.532 27.816 96.96 28.632 95.148 28.632H93.96Z" fill="white"/>
<path fill-rule="evenodd" clip-rule="evenodd" d="M27.3683 29.9572C27.3074 29.9572 27.2648 29.8969 27.2851 29.8395L31.0738 19.134C31.1023 19.0537 31.1782 19 31.2634 19H35.122C35.2075 19 35.2837 19.0541 35.3119 19.1349L38.9919 29.6898C39.0375 29.8206 38.9404 29.9572 38.802 29.9572H27.3683ZM24.1978 30C24.0574 30 23.9602 29.8598 24.0094 29.7283L26.7478 22.4177C26.7772 22.3392 26.8522 22.2871 26.9361 22.2871H29.0289C29.1683 22.2871 29.2655 22.4256 29.218 22.5567L26.5701 29.8674C26.5413 29.947 26.4657 30 26.381 30H24.1978Z" fill="white"/>
</g>
<defs>
<filter id="filter0_d" x="-5" y="-5" width="140" height="60" filterUnits="userSpaceOnUse" color-interpolation-filters="sRGB">
<feFlood flood-opacity="0" result="BackgroundImageFix"/>
<feColorMatrix in="SourceAlpha" type="matrix" values="0 0 0 0 0 0 0 0 0 0 0 0 0 0 0 0 0 0 127 0"/>
<feOffset/>
<feGaussianBlur stdDeviation="5"/>
<feColorMatrix type="matrix" values="0 0 0 0 0.843137 0 0 0 0 0.521569 0 0 0 0 0.333333 0 0 0 0.7 0"/>
<feBlend mode="normal" in2="BackgroundImageFix" result="effect1_dropShadow"/>
<feBlend mode="normal" in="SourceGraphic" in2="effect1_dropShadow" result="shape"/>
</filter>
</defs>
</svg>
