<svg width="130" height="50" viewBox="0 0 130 50" fill="none" xmlns="http://www.w3.org/2000/svg">
<g filter="url(#filter0_d)">
<rect x="10" y="10" width="110" height="30" rx="15" fill="#9A9DA1"/>
<path d="M49.4112 30V23.484H49.4352L53.6352 30H55.5552V21.504H54.0432V27.816H54.0192L49.9032 21.504H47.8992V30H49.4112ZM66.006 25.74C66.006 23.088 64.23 21.288 61.542 21.288C58.578 21.288 56.994 23.34 56.994 25.788C56.994 28.416 58.842 30.216 61.458 30.216C64.074 30.216 66.006 28.404 66.006 25.74ZM58.578 25.692C58.578 24.012 59.754 22.656 61.482 22.656C63.222 22.656 64.422 23.952 64.422 25.692C64.422 27.42 63.33 28.848 61.494 28.848C59.67 28.848 58.578 27.432 58.578 25.692ZM68.958 30V26.4H70.062L72.03 30H73.854L71.598 26.244C72.798 26.076 73.566 25.212 73.566 23.94C73.566 22.08 72.078 21.504 70.446 21.504H67.446V30H68.958ZM68.958 22.8H70.314C71.106 22.8 71.982 22.956 71.982 23.928C71.982 24.984 71.07 25.104 70.206 25.104H68.958V22.8ZM75.0406 30H76.4806V22.944H76.5046L79.0846 30H80.1406L82.7206 22.944H82.7446V30H84.1846V21.504H81.9046L79.6126 27.456L77.3446 21.504H75.0406V30ZM86.858 30L87.626 28.056H91.31L92.102 30H93.83L90.17 21.504H88.862L85.166 30H86.858ZM89.474 23.304L90.782 26.76H88.142L89.474 23.304ZM96.2862 21.504H94.7742V30H99.8982V28.632H96.2862V21.504Z" fill="white"/>
<path fill-rule="evenodd" clip-rule="evenodd" d="M31 32C34.866 32 38 28.866 38 25C38 21.134 34.866 18 31 18C27.134 18 24 21.134 24 25C24 28.866 27.134 32 31 32ZM31 29C33.2091 29 35 27.2091 35 25C35 22.7909 33.2091 21 31 21C28.7909 21 27 22.7909 27 25C27 27.2091 28.7909 29 31 29Z" fill="white"/>
</g>
<defs>
<filter id="filter0_d" x="-5" y="-5" width="140" height="60" filterUnits="userSpaceOnUse" color-interpolation-filters="sRGB">
<feFlood flood-opacity="0" result="BackgroundImageFix"/>
<feColorMatrix in="SourceAlpha" type="matrix" values="0 0 0 0 0 0 0 0 0 0 0 0 0 0 0 0 0 0 127 0"/>
<feOffset/>
<feGaussianBlur stdDeviation="5"/>
<feColorMatrix type="matrix" values="0 0 0 0 0.603922 0 0 0 0 0.615686 0 0 0 0 0.631373 0 0 0 0.7 0"/>
<feBlend mode="normal" in2="BackgroundImageFix" result="effect1_dropShadow"/>
<feBlend mode="normal" in="SourceGraphic" in2="effect1_dropShadow" result="shape"/>
</filter>
</defs>
</svg>
