<svg width="130" height="50" viewBox="0 0 130 50" fill="none" xmlns="http://www.w3.org/2000/svg">
<g filter="url(#filter0_d)">
<rect x="10" y="10" width="110" height="30" rx="15" fill="#B563CE"/>
<path d="M52.4053 30V26.484H53.5693C55.8373 26.484 56.8813 25.716 56.8813 23.94C56.8813 21.816 54.9013 21.504 53.8093 21.504H50.8933V30H52.4053ZM52.4053 22.8H53.5333C54.7093 22.8 55.2973 23.184 55.2973 23.988C55.2973 25.092 54.2773 25.188 53.3893 25.188H52.4053V22.8ZM66.7853 25.74C66.7853 23.088 65.0093 21.288 62.3213 21.288C59.3573 21.288 57.7733 23.34 57.7733 25.788C57.7733 28.416 59.6213 30.216 62.2373 30.216C64.8533 30.216 66.7853 28.404 66.7853 25.74ZM59.3573 25.692C59.3573 24.012 60.5333 22.656 62.2613 22.656C64.0013 22.656 65.2013 23.952 65.2013 25.692C65.2013 27.42 64.1093 28.848 62.2733 28.848C60.4492 28.848 59.3573 27.432 59.3573 25.692ZM69.7013 21.504H68.1893V30H69.7013V21.504ZM74.3972 21.288C72.5492 21.288 71.2652 22.32 71.2652 23.856C71.2652 25.392 72.2492 25.908 73.7732 26.376C74.8652 26.712 75.2972 27.048 75.2972 27.684C75.2972 28.368 74.6252 28.848 73.8092 28.848C73.1252 28.848 72.5012 28.524 72.1292 27.96L70.9892 29.064C71.6492 29.856 72.6332 30.216 73.8332 30.216C75.5012 30.216 76.8812 29.256 76.8812 27.504C76.8812 25.752 75.5252 25.32 74.1692 24.9C73.3292 24.636 72.8492 24.324 72.8492 23.748C72.8492 23.088 73.3892 22.656 74.2412 22.656C74.8292 22.656 75.3932 22.86 75.7292 23.328L76.8332 22.164C76.2332 21.6 75.3692 21.288 74.3972 21.288ZM87.0118 25.74C87.0118 23.088 85.2358 21.288 82.5478 21.288C79.5838 21.288 77.9998 23.34 77.9998 25.788C77.9998 28.416 79.8478 30.216 82.4638 30.216C85.0798 30.216 87.0118 28.404 87.0118 25.74ZM79.5838 25.692C79.5838 24.012 80.7598 22.656 82.4878 22.656C84.2278 22.656 85.4278 23.952 85.4278 25.692C85.4278 27.42 84.3358 28.848 82.4998 28.848C80.6758 28.848 79.5838 27.432 79.5838 25.692ZM89.9639 30V23.484H89.9879L94.1879 30H96.1079V21.504H94.5959V27.816H94.5719L90.4559 21.504H88.4519V30H89.9639Z" fill="white"/>
<path fill-rule="evenodd" clip-rule="evenodd" d="M28.1447 32C28.853 32 29.4742 31.4995 29.8224 30.7477C30.1706 31.4995 30.7917 32 31.5 32C32.1456 32 32.7189 31.5841 33.0789 30.9411C33.439 31.5841 34.0123 32 34.6579 32C35.7479 32 36.6316 30.8145 36.6316 29.3521C36.6316 29.064 36.5973 28.7866 36.5338 28.5268C38.0485 27.3156 39 25.5657 39 23.6196C39 19.9637 35.6421 17 31.5 17C27.3579 17 24 19.9637 24 23.6196C24 25.4955 24.884 27.189 26.3044 28.3936C26.2183 28.6908 26.1711 29.0141 26.1711 29.3521C26.1711 30.8145 27.0547 32 28.1447 32ZM31.4013 27.1117C33.8539 27.1117 35.8421 25.607 35.8421 23.7509C35.8421 21.8948 33.8539 20.3902 31.4013 20.3902C28.9487 20.3902 26.9605 21.8948 26.9605 23.7509C26.9605 25.607 28.9487 27.1117 31.4013 27.1117Z" fill="white"/>
</g>
<defs>
<filter id="filter0_d" x="-5" y="-5" width="140" height="60" filterUnits="userSpaceOnUse" color-interpolation-filters="sRGB">
<feFlood flood-opacity="0" result="BackgroundImageFix"/>
<feColorMatrix in="SourceAlpha" type="matrix" values="0 0 0 0 0 0 0 0 0 0 0 0 0 0 0 0 0 0 127 0"/>
<feOffset/>
<feGaussianBlur stdDeviation="5"/>
<feColorMatrix type="matrix" values="0 0 0 0 0.709804 0 0 0 0 0.388235 0 0 0 0 0.807843 0 0 0 0.7 0"/>
<feBlend mode="normal" in2="BackgroundImageFix" result="effect1_dropShadow"/>
<feBlend mode="normal" in="SourceGraphic" in2="effect1_dropShadow" result="shape"/>
</filter>
</defs>
</svg>
