<svg width="130" height="50" viewBox="0 0 130 50" fill="none" xmlns="http://www.w3.org/2000/svg">
<g filter="url(#filter0_d)">
<rect x="10" y="10" width="110" height="30" rx="15" fill="#F87C7A"/>
<path d="M50.7354 30V26.484H51.8994C54.1674 26.484 55.2114 25.716 55.2114 23.94C55.2114 21.816 53.2314 21.504 52.1394 21.504H49.2234V30H50.7354ZM50.7354 22.8H51.8634C53.0394 22.8 53.6274 23.184 53.6274 23.988C53.6274 25.092 52.6074 25.188 51.7194 25.188H50.7354V22.8ZM59.3913 21.288C57.5433 21.288 56.2593 22.32 56.2593 23.856C56.2593 25.392 57.2433 25.908 58.7673 26.376C59.8593 26.712 60.2913 27.048 60.2913 27.684C60.2913 28.368 59.6193 28.848 58.8033 28.848C58.1193 28.848 57.4953 28.524 57.1233 27.96L55.9833 29.064C56.6433 29.856 57.6273 30.216 58.8273 30.216C60.4953 30.216 61.8753 29.256 61.8753 27.504C61.8753 25.752 60.5193 25.32 59.1633 24.9C58.3233 24.636 57.8433 24.324 57.8433 23.748C57.8433 23.088 58.3833 22.656 59.2353 22.656C59.8233 22.656 60.3873 22.86 60.7233 23.328L61.8273 22.164C61.2273 21.6 60.3633 21.288 59.3913 21.288ZM64.23 21.504H62.334L65.526 26.364V30H67.038V26.364L70.23 21.504H68.43L66.318 24.888L64.23 21.504ZM75.0405 21.288C72.3285 21.288 70.5525 23.148 70.5525 25.788C70.5525 28.428 72.4245 30.216 75.0405 30.216C76.2885 30.216 77.4765 29.736 78.2085 28.704L76.9605 27.816C76.4805 28.428 75.8565 28.848 75.0525 28.848C73.2645 28.848 72.1365 27.444 72.1365 25.692C72.1365 24 73.3125 22.656 75.0525 22.656C75.7965 22.656 76.3485 22.968 76.8405 23.496L78.0165 22.632C77.2125 21.72 76.2525 21.288 75.0405 21.288ZM79.2234 30H80.7354V26.256H84.7074V30H86.2194V21.504H84.7074V24.888H80.7354V21.504H79.2234V30ZM89.5939 21.504H88.0819V30H89.5939V21.504ZM95.4898 21.288C92.7778 21.288 91.0018 23.148 91.0018 25.788C91.0018 28.428 92.8738 30.216 95.4898 30.216C96.7378 30.216 97.9258 29.736 98.6578 28.704L97.4098 27.816C96.9298 28.428 96.3058 28.848 95.5018 28.848C93.7138 28.848 92.5858 27.444 92.5858 25.692C92.5858 24 93.7618 22.656 95.5018 22.656C96.2458 22.656 96.7978 22.968 97.2898 23.496L98.4658 22.632C97.6618 21.72 96.7018 21.288 95.4898 21.288Z" fill="white"/>
<path fill-rule="evenodd" clip-rule="evenodd" d="M35.9745 29.6261C35.9745 29.6261 34.2092 31.042 30.6963 30.456C28.0311 30.0115 26.6096 27.0736 26.6096 25.4944C26.6096 21.7502 29.3808 20.8981 31.2543 20.8981C33.1278 20.8981 34.35 22.7247 34.35 24.1389C34.35 25.5531 33.3497 26.7901 31.7931 26.7901C30.2366 26.7901 29.7755 25.6973 29.7755 24.6926C29.7755 23.6879 30.5884 23.334 31.3297 23.334C32.071 23.334 32.3249 23.9669 32.3249 24.5108C32.3249 25.0548 31.9028 25.2496 31.5508 25.2496C31.1988 25.2496 31.1639 25.072 31.0292 24.8854C30.8945 24.6987 31.2011 23.9923 30.6963 23.9923C30.1915 23.9923 30.0974 24.8044 30.0974 24.8044C30.0974 24.8044 30.2815 26.3721 31.7931 26.3451C33.3048 26.318 34.022 25.1493 33.8136 23.9923C33.6052 22.8352 32.4822 21.6057 30.5115 21.8541C28.5407 22.1026 27.736 24.0939 28.0907 26.2219C28.4454 28.3499 30.9947 29.5829 32.9992 29.1393C35.0036 28.6957 37 27.2445 37 23.5653C37 19.8861 33.8136 17.6746 30.014 18.0391C26.2145 18.4036 23.8559 21.7254 24.0068 25.7166C24.1578 29.7078 27.945 31.8816 31.1475 31.9936C34.35 32.1057 36.3132 30.2518 36.3132 30.2518C36.3132 30.2518 36.7547 29.8581 36.5816 29.5506C36.4085 29.2432 35.9745 29.6261 35.9745 29.6261Z" fill="white"/>
</g>
<defs>
<filter id="filter0_d" x="-5" y="-5" width="140" height="60" filterUnits="userSpaceOnUse" color-interpolation-filters="sRGB">
<feFlood flood-opacity="0" result="BackgroundImageFix"/>
<feColorMatrix in="SourceAlpha" type="matrix" values="0 0 0 0 0 0 0 0 0 0 0 0 0 0 0 0 0 0 127 0"/>
<feOffset/>
<feGaussianBlur stdDeviation="5"/>
<feColorMatrix type="matrix" values="0 0 0 0 0.972549 0 0 0 0 0.486275 0 0 0 0 0.478431 0 0 0 0.7 0"/>
<feBlend mode="normal" in2="BackgroundImageFix" result="effect1_dropShadow"/>
<feBlend mode="normal" in="SourceGraphic" in2="effect1_dropShadow" result="shape"/>
</filter>
</defs>
</svg>
