<svg width="130" height="50" viewBox="0 0 130 50" fill="none" xmlns="http://www.w3.org/2000/svg">
<g filter="url(#filter0_d)">
<rect x="10" y="10" width="110" height="30" rx="15" fill="#CEC18C"/>
<path d="M58.9678 30V26.4H60.0718L62.0398 30H63.8638L61.6078 26.244C62.8078 26.076 63.5758 25.212 63.5758 23.94C63.5758 22.08 62.0878 21.504 60.4558 21.504H57.4558V30H58.9678ZM58.9678 22.8H60.3238C61.1158 22.8 61.9918 22.956 61.9918 23.928C61.9918 24.984 61.0798 25.104 60.2158 25.104H58.9678V22.8ZM73.5704 25.74C73.5704 23.088 71.7944 21.288 69.1064 21.288C66.1424 21.288 64.5584 23.34 64.5584 25.788C64.5584 28.416 66.4064 30.216 69.0224 30.216C71.6384 30.216 73.5704 28.404 73.5704 25.74ZM66.1424 25.692C66.1424 24.012 67.3184 22.656 69.0464 22.656C70.7864 22.656 71.9864 23.952 71.9864 25.692C71.9864 27.42 70.8944 28.848 69.0584 28.848C67.2344 28.848 66.1424 27.432 66.1424 25.692ZM79.0425 21.288C76.3305 21.288 74.5545 23.148 74.5545 25.788C74.5545 28.428 76.4265 30.216 79.0425 30.216C80.2905 30.216 81.4785 29.736 82.2105 28.704L80.9625 27.816C80.4825 28.428 79.8585 28.848 79.0545 28.848C77.2665 28.848 76.1385 27.444 76.1385 25.692C76.1385 24 77.3145 22.656 79.0545 22.656C79.7985 22.656 80.3505 22.968 80.8425 23.496L82.0185 22.632C81.2145 21.72 80.2545 21.288 79.0425 21.288ZM83.2253 30H84.7373V25.824H84.8213L88.5053 30H90.6293L86.3933 25.428L90.3653 21.504H88.3253L84.8093 25.104H84.7373V21.504H83.2253V30Z" fill="white"/>
<path fill-rule="evenodd" clip-rule="evenodd" d="M34.8536 25.2658C34.8242 25.2258 34.8124 25.1757 34.8208 25.1268L35.674 20.1518C35.689 20.0641 35.7661 20 35.8551 20C35.9348 20 36.0062 20.0517 36.0302 20.1276L37.9618 26.2435C37.9848 26.3162 37.9601 26.3956 37.9 26.4425L36.661 27.4099C36.5799 27.4732 36.4624 27.457 36.4014 27.374L34.8536 25.2658ZM24 28.5214C24 28.6004 24.0508 28.6704 24.1259 28.695L26.9716 29.6254C27.0258 29.6432 27.0852 29.6345 27.1322 29.6021L33.818 24.9864C33.8596 24.9577 33.8874 24.913 33.8949 24.863L34.5847 20.2347C34.6011 20.1243 34.5156 20.0251 34.404 20.0251H28.6513C28.5969 20.0251 28.5454 20.0493 28.5107 20.0912L24.042 25.4819C24.0149 25.5147 24 25.5559 24 25.5985V28.5214ZM28.3271 29.907L31.5755 30.9712C31.6309 30.9893 31.6915 30.9799 31.7389 30.946L35.4951 28.2516C35.5753 28.1941 35.5953 28.0833 35.5402 28.0013L34.2482 26.0787C34.1916 25.9945 34.0772 25.9725 33.9935 26.0298L28.3271 29.907Z" fill="white"/>
</g>
<defs>
<filter id="filter0_d" x="-5" y="-5" width="140" height="60" filterUnits="userSpaceOnUse" color-interpolation-filters="sRGB">
<feFlood flood-opacity="0" result="BackgroundImageFix"/>
<feColorMatrix in="SourceAlpha" type="matrix" values="0 0 0 0 0 0 0 0 0 0 0 0 0 0 0 0 0 0 127 0"/>
<feOffset/>
<feGaussianBlur stdDeviation="5"/>
<feColorMatrix type="matrix" values="0 0 0 0 0.807843 0 0 0 0 0.756863 0 0 0 0 0.54902 0 0 0 0.7 0"/>
<feBlend mode="normal" in2="BackgroundImageFix" result="effect1_dropShadow"/>
<feBlend mode="normal" in="SourceGraphic" in2="effect1_dropShadow" result="shape"/>
</filter>
</defs>
</svg>
