<svg width="130" height="50" viewBox="0 0 130 50" fill="none" xmlns="http://www.w3.org/2000/svg">
<g filter="url(#filter0_d)">
<rect x="10" y="10" width="110" height="30" rx="15" fill="#5596A4"/>
<path d="M59.9421 21.288C58.0941 21.288 56.8101 22.32 56.8101 23.856C56.8101 25.392 57.7941 25.908 59.3181 26.376C60.4101 26.712 60.8421 27.048 60.8421 27.684C60.8421 28.368 60.1701 28.848 59.3541 28.848C58.6701 28.848 58.0461 28.524 57.6741 27.96L56.5341 29.064C57.1941 29.856 58.1781 30.216 59.3781 30.216C61.0461 30.216 62.4261 29.256 62.4261 27.504C62.4261 25.752 61.0701 25.32 59.7141 24.9C58.8741 24.636 58.3941 24.324 58.3941 23.748C58.3941 23.088 58.9341 22.656 59.7861 22.656C60.3741 22.656 60.9381 22.86 61.2741 23.328L62.3781 22.164C61.7781 21.6 60.9141 21.288 59.9421 21.288ZM63.1367 22.872H65.7407V30H67.2527V22.872H69.8567V21.504H63.1367V22.872ZM70.8914 30H76.7354V28.632H72.4034V26.328H76.3034V24.96H72.4034V22.872H76.5194V21.504H70.8914V30ZM78.2273 30H84.0713V28.632H79.7393V26.328H83.6393V24.96H79.7393V22.872H83.8553V21.504H78.2273V30ZM87.0752 21.504H85.5632V30H90.6872V28.632H87.0752V21.504Z" fill="white"/>
<path fill-rule="evenodd" clip-rule="evenodd" d="M24.0511 24.6919C23.983 24.5756 23.983 24.4317 24.051 24.3154L27.6395 18.1843C27.7063 18.0702 27.8287 18 27.961 18H35.0772C35.2101 18 35.333 18.0708 35.3996 18.1859L38.9487 24.3169C39.0155 24.4324 39.0155 24.5749 38.9486 24.6903L35.3996 30.8143C35.333 30.9292 35.2102 31 35.0773 31H27.9608C27.8286 31 27.7063 30.9299 27.6394 30.8158L24.0511 24.6919ZM31.5 28C33.433 28 35 26.433 35 24.5C35 22.567 33.433 21 31.5 21C29.567 21 28 22.567 28 24.5C28 26.433 29.567 28 31.5 28Z" fill="white"/>
</g>
<defs>
<filter id="filter0_d" x="-5" y="-5" width="140" height="60" filterUnits="userSpaceOnUse" color-interpolation-filters="sRGB">
<feFlood flood-opacity="0" result="BackgroundImageFix"/>
<feColorMatrix in="SourceAlpha" type="matrix" values="0 0 0 0 0 0 0 0 0 0 0 0 0 0 0 0 0 0 127 0"/>
<feOffset/>
<feGaussianBlur stdDeviation="5"/>
<feColorMatrix type="matrix" values="0 0 0 0 0.333333 0 0 0 0 0.588235 0 0 0 0 0.643137 0 0 0 0.7 0"/>
<feBlend mode="normal" in2="BackgroundImageFix" result="effect1_dropShadow"/>
<feBlend mode="normal" in="SourceGraphic" in2="effect1_dropShadow" result="shape"/>
</filter>
</defs>
</svg>
