<svg width="130" height="50" viewBox="0 0 130 50" fill="none" xmlns="http://www.w3.org/2000/svg">
<g filter="url(#filter0_d)">
<rect x="10" y="10" width="110" height="30" rx="15" fill="#559EDF"/>
<path d="M55.049 30H56.441L58.409 23.532H58.433L60.401 30H61.841L64.313 21.504H62.777L61.109 27.624H61.085L59.213 21.504H57.725L55.817 27.624H55.793L54.197 21.504H52.541L55.049 30ZM65.7057 30L66.4737 28.056H70.1577L70.9497 30H72.6777L69.0177 21.504H67.7097L64.0137 30H65.7057ZM68.3217 23.304L69.6297 26.76H66.9897L68.3217 23.304ZM72.7578 22.872H75.3618V30H76.8738V22.872H79.4778V21.504H72.7578V22.872ZM80.5125 30H86.3565V28.632H82.0245V26.328H85.9245V24.96H82.0245V22.872H86.1405V21.504H80.5125V30ZM89.3604 30V26.4H90.4644L92.4324 30H94.2564L92.0004 26.244C93.2004 26.076 93.9684 25.212 93.9684 23.94C93.9684 22.08 92.4804 21.504 90.8484 21.504H87.8484V30H89.3604ZM89.3604 22.8H90.7164C91.5084 22.8 92.3844 22.956 92.3844 23.928C92.3844 24.984 91.4724 25.104 90.6084 25.104H89.3604V22.8Z" fill="white"/>
<path fill-rule="evenodd" clip-rule="evenodd" d="M29 32C31.7614 32 34 28.5474 34 24.2884C34 20.0294 31.7614 16.5768 29 16.5768C26.2386 16.5768 24 20.0294 24 24.2884C24 28.5474 26.2386 32 29 32ZM28.1665 30.4031C25.6293 29.8479 26.0634 27.0373 26.0634 27.0373C26.0634 27.0373 26.7563 28.734 28.4376 29.2835C30.1189 29.8331 32.1507 29.0271 32.1507 29.0271C32.1507 29.0271 30.7037 30.9582 28.1665 30.4031Z" fill="white"/>
</g>
<defs>
<filter id="filter0_d" x="-5" y="-5" width="140" height="60" filterUnits="userSpaceOnUse" color-interpolation-filters="sRGB">
<feFlood flood-opacity="0" result="BackgroundImageFix"/>
<feColorMatrix in="SourceAlpha" type="matrix" values="0 0 0 0 0 0 0 0 0 0 0 0 0 0 0 0 0 0 127 0"/>
<feOffset/>
<feGaussianBlur stdDeviation="5"/>
<feColorMatrix type="matrix" values="0 0 0 0 0.333333 0 0 0 0 0.619608 0 0 0 0 0.87451 0 0 0 0.7 0"/>
<feBlend mode="normal" in2="BackgroundImageFix" result="effect1_dropShadow"/>
<feBlend mode="normal" in="SourceGraphic" in2="effect1_dropShadow" result="shape"/>
</filter>
</defs>
</svg>
